PathFileType	4	(X/Y/Z)	C:/Users/beibeiliu/ov580/test_trc/User2\sequence.34_training_dense_left.trc
DataRate	CameraRate	NumFrames	NumMarkers	Units	OrigDataRate	OrigDataStartFrame	OrigNumFrames
120	120	9	19	mm	120	164	326
Frame#	Time	ThumbCMC			ThumbMCP			ThumbIP			ThumbTip			IndexMCP			IndexPIP			IndexTip			MiddleMCP			MiddlePIP			MiddleTip			RingMCP			RingPIP			RingTip			PinkyMCP			PinkyPIP			PinkyTip			BackHand1			BackHand2			BackHand3	
		X0	Y0	Z0	X1	Y1	Z1	X2	Y2	Z2	X3	Y3	Z3	X4	Y4	Z4	X5	Y5	Z5	X6	Y6	Z6	X7	Y7	Z7	X8	Y8	Z8	X9	Y9	Z9	X10	Y10	Z10	X11	Y11	Z11	X12	Y12	Z12	X13	Y13	Z13	X14	Y14	Z14	X15	Y15	Z15	X16	Y16	Z16	X17	Y17	Z17	X18	Y18	Z18	
163	1.35833	-177.186	0.808176	69.1076	-157.257	10.7048	46.2131	-134.131	5.63277	13.3077	-117.766	-3.28048	-1.05194	-147.047	-28.2279	-1.60216	-114.747	-27.2265	7.14571	-123.839	-18.1831	39.682	-138.819	-51.1334	2.4053	-108.151	-45.5954	17.2699	-124.806	-29.5423	50.0292	-132.205	-69.5091	16.6073	-106.654	-56.5396	28.5417	-129.374	-41.6514	55.8725	-133.394	-82.3696	31.9692	-107.929	-65.6188	43.5179	-127.152	-54.9312	65.7897	-187.798	-69.7206	52.6931	-202.386	-60.0955	82.6777	-199.864	-29.0478	60.4449	
164	1.36667	-176.934	-1.34868	69.0213	-157.193	9.75333	45.7764	-136.2	3.00461	16.1435	-119.352	-3.13155	-3.03732	-145.753	-27.9448	-2.97931	-114.833	-24.555	6.11858	-124.815	-18.1058	38.5349	-141.271	-50.2764	2.78082	-108.042	-43.9392	18.8511	-128.505	-31.5062	52.1941	-131.224	-68.9914	16.4338	-105.646	-58.6261	31.6844	-127.135	-42.8249	55.3607	-133.058	-84.9177	34.0234	-109.218	-62.8179	44.3228	-132.728	-51.2595	65.1831	-185.43	-69.8607	54.2244	-201.939	-64.393	85.7589	-199.608	-31.7113	56.9828	
165	1.375	-178.033	0.0572486	68.2244	-159.152	7.75689	44.7705	-137.966	3.20814	13.6435	-121.91	-6.53551	-3.69488	-150.092	-28.6109	-1.74452	-116.487	-28.4732	7.86424	-127.8	-20.1801	39.5995	-139.731	-53.8373	3.82491	-108.016	-43.5138	20.4629	-127.913	-28.6361	50.3986	-131.447	-66.4918	14.9449	-106.899	-54.8253	31.9961	-128.683	-42.5339	55.7554	-132.064	-82.0528	31.2282	-107.492	-67.5825	46.0169	-130.816	-54.1078	64.087	-187.763	-71.8588	53.6554	-202.578	-62.8403	81.4975	-200.603	-35.2475	58.5544	
166	1.38333	-178.174	1.54115	68.7563	-160.312	11.1556	43.1445	-141.001	6.98692	10.6143	-126.01	-9.39432	-3.2206	-151.187	-29.5025	-1.02942	-117.291	-28.0865	5.649	-130.041	-14.0386	37.9549	-138.819	-52.8683	1.08899	-108.745	-43.6394	18.8325	-128.936	-30.8548	51.3387	-132.817	-72.2565	16.2496	-108.188	-56.8453	29.4931	-128.468	-47.0323	56.9687	-130.142	-84.9927	31.8523	-110.959	-63.6217	45.471	-131.526	-55.4253	67.2858	-188.4	-71.9729	54.153	-202.41	-60.8068	83.5098	-198.954	-30.074	57.0609	
167	1.39167	-180.176	1.50003	72.7763	-163.858	8.57519	41.2388	-146.165	8.15298	12.3736	-129.842	-7.8251	-7.43212	-150.104	-31.3518	-4.74604	-118.868	-29.8819	4.37036	-131.492	-17.3537	35.7675	-141.166	-54.8311	2.23489	-110.328	-45.8964	15.7032	-129.764	-34.2939	51.3146	-136.443	-69.0823	15.3721	-108.179	-58.0325	29.8866	-131.486	-46.9128	56.9784	-135.313	-83.118	30.5213	-109.781	-68.2099	45.4174	-130.59	-57.0395	68.7039	-188.78	-71.5154	51.5289	-202.121	-62.6105	83.9699	-199.046	-30.8619	56.9584	
168	1.4	-180.497	-2.47493	69.6666	-167.485	10.6192	44.4999	-150.236	3.33683	11.601	-135.016	-6.3541	-9.30172	-153.566	-30.7894	-4.43838	-120.986	-30.3407	2.74853	-132.537	-18.9567	34.9332	-142.502	-51.6212	0.168208	-110.947	-45.431	14.117	-131.04	-31.9413	50.8029	-131.731	-68.9019	13.347	-110.611	-54.6125	28.1456	-130.367	-45.5145	53.5513	-135.036	-83.8291	30.1705	-111.029	-64.2133	43.8581	-131.301	-54.8969	63.7361	-189.065	-70.2231	53.4049	-201.636	-65.2808	83.4938	-202.928	-31.2058	58.7574	
169	1.40833	-183.631	1.92002	72.0383	-170.788	5.99521	41.3225	-154.913	1.29102	10.0951	-139.796	-7.59525	-7.05392	-155.226	-31.162	-5.05448	-122.764	-26.6432	-0.598243	-132.973	-16.4073	30.8993	-145.109	-55.0198	0.981193	-112.134	-41.3176	13.5042	-127.588	-31.2963	47.3325	-137.451	-69.6172	13.4833	-109.217	-58.9112	28.2235	-134.943	-46.7872	56.4679	-135.598	-81.2942	28.2631	-110.495	-67.338	43.8289	-130.83	-56.062	64.9497	-188.958	-69.1001	53.549	-204.891	-63.0064	83.8488	-203.16	-34.5792	58.4208	
170	1.41667	-186.153	-0.207866	66.8795	-174.923	11.8655	39.1514	-159.486	6.66935	10.1796	-142.197	-10.4742	-10.3828	-153.571	-33.1626	-6.13541	-124.553	-28.6102	-0.998033	-135.554	-17.0775	31.9474	-143.794	-55.5234	-0.562828	-112.456	-40.4566	12.5823	-129.574	-34.4925	47.1937	-132.228	-71.2668	12.8649	-110.966	-54.7293	28.9211	-132.517	-45.3517	52.5719	-135.334	-85.7861	30.5894	-112.02	-66.0007	39.4475	-134.457	-54.3401	63.0306	-187.337	-73.0646	55.1985	-203.469	-66.4511	84.5408	-204.242	-35.5248	59.2976	
171	1.425	-188.851	0.343002	68.3045	-177.654	8.18141	39.9641	-162.317	1.74282	8.18425	-147.585	-8.71601	-7.70965	-153.919	-32.6569	-6.60302	-125.788	-30.2835	-0.533555	-136.188	-16.9417	32.5577	-145.285	-54.8674	-0.393694	-114.435	-43.5094	9.40171	-131.143	-30.3538	46.6824	-136.487	-69.0562	12.6857	-111.055	-57.5539	24.4735	-135.918	-44.6633	53.1092	-136.668	-85.1837	31.5651	-110.95	-64.201	40.2177	-130.896	-53.2654	60.7935	-186.435	-73.7855	51.7978	-204.869	-64.5093	86.2349	-204.055	-31.7681	59.0752	
